<svg width="1432" height="1437" viewBox="0 0 1432 1437" fill="none" xmlns="http://www.w3.org/2000/svg">
<g filter="url(#filter0_iiii_498_3465)">
<path d="M479.669 1284.55C393.814 1231.64 463.286 1077.47 394.779 1003.97C305.145 907.805 117.059 937.269 50.7176 824.333C-16.6163 709.708 10.623 558.339 61.4128 436.471C116.345 304.661 210.133 179.63 342.961 123.104C474.227 67.2435 629.619 87.7873 764.143 137.422C883.344 181.403 948.452 299.515 1044.52 381.954C1137.39 461.654 1279.23 499.485 1319.44 613.972C1359.73 728.657 1314.78 860.971 1248.44 962.519C1189.76 1052.33 1075.8 1081.56 980.557 1132.71C907.781 1171.8 835.622 1202.78 756.319 1226.82C664.413 1254.68 561.573 1335.04 479.669 1284.55Z" fill="#F5F5F5"/>
</g>
<defs>
<filter id="filter0_iiii_498_3465" x="-102" y="0" width="1533.69" height="1452.04" filterUnits="userSpaceOnUse" color-interpolation-filters="sRGB">
<feFlood flood-opacity="0" result="BackgroundImageFix"/>
<feBlend mode="normal" in="SourceGraphic" in2="BackgroundImageFix" result="shape"/>
<feColorMatrix in="SourceAlpha" type="matrix" values="0 0 0 0 0 0 0 0 0 0 0 0 0 0 0 0 0 0 127 0" result="hardAlpha"/>
<feOffset dy="16"/>
<feGaussianBlur stdDeviation="16"/>
<feComposite in2="hardAlpha" operator="arithmetic" k2="-1" k3="1"/>
<feColorMatrix type="matrix" values="0 0 0 0 0 0 0 0 0 0 0 0 0 0 0 0 0 0 0.16 0"/>
<feBlend mode="normal" in2="shape" result="effect1_innerShadow_498_3465"/>
<feColorMatrix in="SourceAlpha" type="matrix" values="0 0 0 0 0 0 0 0 0 0 0 0 0 0 0 0 0 0 127 0" result="hardAlpha"/>
<feOffset dy="8"/>
<feGaussianBlur stdDeviation="8"/>
<feComposite in2="hardAlpha" operator="arithmetic" k2="-1" k3="1"/>
<feColorMatrix type="matrix" values="0 0 0 0 0 0 0 0 0 0 0 0 0 0 0 0 0 0 0.12 0"/>
<feBlend mode="normal" in2="effect1_innerShadow_498_3465" result="effect2_innerShadow_498_3465"/>
<feColorMatrix in="SourceAlpha" type="matrix" values="0 0 0 0 0 0 0 0 0 0 0 0 0 0 0 0 0 0 127 0" result="hardAlpha"/>
<feOffset dy="4"/>
<feGaussianBlur stdDeviation="4"/>
<feComposite in2="hardAlpha" operator="arithmetic" k2="-1" k3="1"/>
<feColorMatrix type="matrix" values="0 0 0 0 0 0 0 0 0 0 0 0 0 0 0 0 0 0 0.12 0"/>
<feBlend mode="normal" in2="effect2_innerShadow_498_3465" result="effect3_innerShadow_498_3465"/>
<feColorMatrix in="SourceAlpha" type="matrix" values="0 0 0 0 0 0 0 0 0 0 0 0 0 0 0 0 0 0 127 0" result="hardAlpha"/>
<feOffset dy="2"/>
<feGaussianBlur stdDeviation="2"/>
<feComposite in2="hardAlpha" operator="arithmetic" k2="-1" k3="1"/>
<feColorMatrix type="matrix" values="0 0 0 0 0 0 0 0 0 0 0 0 0 0 0 0 0 0 0.12 0"/>
<feBlend mode="normal" in2="effect3_innerShadow_498_3465" result="effect4_innerShadow_498_3465"/>
</filter>
</defs>
</svg>
